<svg xmlns="http://www.w3.org/2000/svg" viewBox="0 0 720 440" width="720" height="440" font-family="PingFang SC, Microsoft YaHei, Noto Sans CJK SC, sans-serif">
  <rect x="0" y="0" width="720" height="440" fill="#f7f8fa"/>
  <rect x="10" y="10" width="700" height="420" rx="10" fill="#ffffff" stroke="#d5dce6"/>
  <path d="M10 20 a10 10 0 0 1 10 -10 h680 a10 10 0 0 1 10 10 v24 h-700 z" fill="#0f4c81"/>
  <circle cx="26" cy="27" r="4" fill="#ffffff" opacity=".55"/><circle cx="40" cy="27" r="4" fill="#ffffff" opacity=".55"/><circle cx="54" cy="27" r="4" fill="#ffffff" opacity=".55"/>
  <text x="72" y="32" font-size="13" font-weight="700" fill="#ffffff">运营中心 · A350 总装</text>
  <text x="696" y="32" font-size="11" fill="#cfe0f1" text-anchor="end">Foundry + AIP 界面示意</text>
  <!-- 左栏:业务对象 -->
  <rect x="10" y="44" width="160" height="386" fill="#f4f6f9"/>
  <path d="M10 420 v-376 h160 v376" fill="none" stroke="#e4e8ef"/>
  <text x="24" y="68" font-size="12" font-weight="700" fill="#1a2233">业务对象</text>
  <g font-size="11.5">
    <rect x="18" y="78" width="144" height="40" rx="6" fill="#e8f0f8"/><rect x="18" y="78" width="4" height="40" rx="2" fill="#0f4c81"/>
    <text x="30" y="95" font-weight="700" fill="#0f4c81">飞机 MSN 0412</text><text x="30" y="111" font-size="10.5" fill="#b91c1c">总装受阻</text>
    <text x="30" y="141" fill="#1a2233">工位 · 总装站 40</text>
    <text x="30" y="175" fill="#1a2233">零件 · 舱门作动筒</text>
    <text x="30" y="209" fill="#1a2233">供应商 · 部件厂 B</text>
    <text x="30" y="243" fill="#1a2233">订单 · 交付批次 7</text>
    <line x1="24" y1="152" x2="156" y2="152" stroke="#e4e8ef"/><line x1="24" y1="186" x2="156" y2="186" stroke="#e4e8ef"/>
    <line x1="24" y1="220" x2="156" y2="220" stroke="#e4e8ef"/>
  </g>
  <text x="24" y="372" font-size="10.5" fill="#5a6478">数据来源(实时同步)</text>
  <g font-size="10">
    <rect x="24" y="382" width="34" height="18" rx="4" fill="#ffffff" stroke="#d5dce6"/><text x="41" y="395" text-anchor="middle" fill="#5a6478">ERP</text>
    <rect x="62" y="382" width="34" height="18" rx="4" fill="#ffffff" stroke="#d5dce6"/><text x="79" y="395" text-anchor="middle" fill="#5a6478">MES</text>
    <rect x="100" y="382" width="30" height="18" rx="4" fill="#ffffff" stroke="#d5dce6"/><text x="115" y="395" text-anchor="middle" fill="#5a6478">采购</text>
    <rect x="134" y="382" width="30" height="18" rx="4" fill="#ffffff" stroke="#d5dce6"/><text x="149" y="395" text-anchor="middle" fill="#5a6478">邮件</text>
  </g>
  <!-- 中间:关系视图 -->
  <text x="186" y="68" font-size="12" font-weight="700" fill="#1a2233">关系视图</text>
  <g stroke="#9aa4b5" stroke-width="1.6" fill="none">
    <line x1="352" y1="222" x2="258" y2="137"/><line x1="352" y1="222" x2="446" y2="137"/>
    <line x1="352" y1="222" x2="258" y2="318"/><line x1="446" y1="137" x2="446" y2="318"/>
  </g>
  <g font-size="10.5" fill="#5a6478">
    <rect x="276" y="168" width="52" height="18" rx="9" fill="#ffffff"/><text x="302" y="181" text-anchor="middle">所在工位</text>
    <rect x="382" y="168" width="36" height="18" rx="9" fill="#ffffff"/><text x="400" y="181" text-anchor="middle">缺少</text>
    <rect x="286" y="262" width="36" height="18" rx="9" fill="#ffffff"/><text x="304" y="275" text-anchor="middle">属于</text>
    <rect x="428" y="220" width="36" height="18" rx="9" fill="#ffffff"/><text x="446" y="233" text-anchor="middle">供货</text>
  </g>
  <rect x="287" y="198" width="130" height="48" rx="9" fill="#0f4c81"/>
  <text x="352" y="218" font-size="12.5" font-weight="700" fill="#ffffff" text-anchor="middle">飞机 MSN 0412</text>
  <text x="352" y="236" font-size="10.5" fill="#d5e3f1" text-anchor="middle">状态:受阻</text>
  <rect x="198" y="113" width="120" height="44" rx="9" fill="#fff4ee" stroke="#eb6834" stroke-width="1.5"/>
  <text x="258" y="132" font-size="12" font-weight="700" fill="#1a2233" text-anchor="middle">总装站 40</text><text x="258" y="148" font-size="10.5" fill="#c2521f" text-anchor="middle">排队等待</text>
  <rect x="386" y="113" width="120" height="44" rx="9" fill="#fff4ee" stroke="#eb6834" stroke-width="1.5"/>
  <text x="446" y="132" font-size="12" font-weight="700" fill="#1a2233" text-anchor="middle">舱门作动筒</text><text x="446" y="148" font-size="10.5" fill="#c2521f" text-anchor="middle">缺件</text>
  <rect x="198" y="296" width="120" height="44" rx="9" fill="#ffffff" stroke="#cfd8e4" stroke-width="1.5"/>
  <text x="258" y="315" font-size="12" font-weight="700" fill="#1a2233" text-anchor="middle">交付批次 7</text><text x="258" y="331" font-size="10.5" fill="#5a6478" text-anchor="middle">交付日期受影响</text>
  <rect x="386" y="296" width="120" height="44" rx="9" fill="#ffffff" stroke="#cfd8e4" stroke-width="1.5"/>
  <text x="446" y="315" font-size="12" font-weight="700" fill="#1a2233" text-anchor="middle">部件厂 B</text><text x="446" y="331" font-size="10.5" fill="#5a6478" text-anchor="middle">交期延后</text>
  <!-- 右栏:动作与 AI 助手 -->
  <path d="M530 44 v386" stroke="#e4e8ef"/>
  <text x="546" y="68" font-size="12" font-weight="700" fill="#1a2233">可执行动作</text>
  <g font-size="11.5">
    <rect x="546" y="78" width="150" height="28" rx="6" fill="#ffffff" stroke="#0f4c81"/><text x="621" y="96" text-anchor="middle" fill="#0f4c81">调整排产</text>
    <rect x="546" y="112" width="150" height="28" rx="6" fill="#ffffff" stroke="#0f4c81"/><text x="621" y="130" text-anchor="middle" fill="#0f4c81">切换供应商</text>
    <rect x="546" y="146" width="150" height="28" rx="6" fill="#ffffff" stroke="#0f4c81"/><text x="621" y="164" text-anchor="middle" fill="#0f4c81">通知采购</text>
  </g>
  <rect x="546" y="192" width="150" height="208" rx="8" fill="#f5f3ff" stroke="#d9d2f5"/>
  <text x="558" y="212" font-size="12" font-weight="700" fill="#3f2f99">AI 助手</text>
  <g font-size="10.8" fill="#1a2233">
    <text x="558" y="234">受阻原因:舱门作动筒</text>
    <text x="558" y="250">缺件,部件厂 B 交期延后。</text>
    <text x="558" y="274">建议:切换至备选</text>
    <text x="558" y="290">供应商 C,并将 MSN 0412</text>
    <text x="558" y="306">调至总装站 42。</text>
  </g>
  <rect x="558" y="322" width="60" height="26" rx="6" fill="#0f4c81"/><text x="588" y="339" font-size="11.5" fill="#ffffff" text-anchor="middle">批准</text>
  <rect x="626" y="322" width="60" height="26" rx="6" fill="#ffffff" stroke="#9aa4b5"/><text x="656" y="339" font-size="11.5" fill="#5a6478" text-anchor="middle">驳回</text>
  <text x="558" y="372" font-size="10.3" fill="#5a6478">审批后写回</text>
  <text x="558" y="387" font-size="10.3" fill="#5a6478">ERP、MES 与采购系统</text>
</svg>
